<svg width="14" height="14" viewBox="0 0 14 14" fill="none" xmlns="http://www.w3.org/2000/svg">
<path d="M5.61848 6.18066V9.55176" stroke="#4BB3FD" stroke-width="1.1237" stroke-linecap="round" stroke-linejoin="round"/>
<path d="M7.86589 6.18066V9.55176" stroke="#4BB3FD" stroke-width="1.1237" stroke-linecap="round" stroke-linejoin="round"/>
<path d="M10.6751 3.37109V11.237C10.6751 11.535 10.5567 11.8208 10.346 12.0316C10.1353 12.2423 9.84946 12.3607 9.55144 12.3607H3.93295C3.63492 12.3607 3.34911 12.2423 3.13837 12.0316C2.92764 11.8208 2.80925 11.535 2.80925 11.237V3.37109" stroke="#4BB3FD" stroke-width="1.1237" stroke-linecap="round" stroke-linejoin="round"/>
<path d="M1.68555 3.37109H11.7988" stroke="#4BB3FD" stroke-width="1.1237" stroke-linecap="round" stroke-linejoin="round"/>
<path d="M4.4948 3.37142V2.24772C4.4948 1.9497 4.61319 1.66388 4.82392 1.45315C5.03465 1.24241 5.32047 1.12402 5.61849 1.12402H7.86589C8.16391 1.12402 8.44973 1.24241 8.66046 1.45315C8.8712 1.66388 8.98959 1.9497 8.98959 2.24772V3.37142" stroke="#4BB3FD" stroke-width="1.1237" stroke-linecap="round" stroke-linejoin="round"/>
</svg>
