<svg width="271" height="350" viewBox="0 0 271 350" fill="none" xmlns="http://www.w3.org/2000/svg">
<path d="M176.69 32.1628C177.28 33.1128 178.02 33.0828 178.99 33.1928C194.53 35.0128 213.43 30.4928 228.7 34.8228C280.12 49.4128 269.14 106.123 269.33 147.523C269.55 195.313 270.64 243.523 270.05 291.463C269.68 321.693 245.59 346.823 215.61 349.083L54.37 349.153C26.58 346.933 4.8 326.853 0 299.523L0.01 82.8228C3.07 58.2828 24.74 35.4928 49.68 33.1528C62.57 31.9428 76.98 34.3428 90.02 32.8228C91.9 31.9128 91.45 23.2828 92.2 20.3328C95.41 7.61276 106.65 1.33276 118.99 0.462761C129.1 -0.247239 152.4 -0.577239 161.35 2.82276C166.85 4.91276 176.68 15.7028 176.68 21.4928V32.1628H176.69ZM232.29 72.8828C227.85 68.2428 222.77 65.9928 216.37 65.1328H52.99C36.65 67.6728 30.81 78.7228 29.99 94.1328C27.83 134.963 30.54 179.143 30.68 220.163C30.75 239.993 29.31 260.403 29.97 280.183C30.21 287.423 30.22 296.413 33.32 302.843C37.59 311.713 46.75 316.483 56.31 317.183H215.03C228.61 315.913 237.98 305.423 239.37 292.183V91.4628C238.6 83.8328 237.63 78.4728 232.28 72.8828H232.29Z" fill="#0D3890"/>
<path d="M167.69 90.4932C188.87 92.7432 208.76 110.843 215.86 130.323C229.84 168.703 215.19 217.403 175.35 232.803C173.09 233.683 170.25 233.293 168.71 235.483L214.05 293.463L214.7 295.803C210.53 295.503 206.49 296.393 202.34 296.503C197.31 296.643 191.46 295.973 186.4 295.773C183.68 295.663 176.74 296.453 174.99 295.183L112.18 211.963C111.42 209.893 112.94 207.543 115.06 207.153C138.21 205.623 166.6 213.773 181.92 191.343C195.24 171.833 194.92 134.413 170.5 123.683C169.68 123.323 163.44 121.133 163.05 121.133H89.7201L88.7201 122.133V295.803H57.3901V90.4932H167.72H167.69Z" fill="#0D3890"/>
<path d="M137.25 191.713C136.7 192.043 135.1 191.953 134.47 191.713C132.32 190.903 128.84 177.343 126.68 174.833C123.94 173.013 110.09 169.153 110.15 166.043C110.21 162.533 123.87 159.583 126.74 157.533C129.96 151.743 130.65 143.993 135.1 139.183C138.04 138.563 143.2 154.973 145.99 157.523C148.64 159.943 161.14 162.733 161.4 165.503C161.48 166.343 161.22 166.883 160.73 167.543C159.09 169.753 148.09 172.753 145.31 174.793L137.25 191.723V191.713Z" fill="#C7CE0B"/>
</svg>
