<svg width="14" height="14" viewBox="0 0 14 14" fill="none" xmlns="http://www.w3.org/2000/svg">
<path d="M6.18034 7.86621H11.7988" stroke="#F5F3F5" stroke-width="1.1237" stroke-linecap="round" stroke-linejoin="round"/>
<path d="M8.98958 2.24707H10.1133C10.4113 2.24707 10.6971 2.36546 10.9079 2.57619C11.1186 2.78693 11.237 3.07274 11.237 3.37077V4.12589" stroke="#F5F3F5" stroke-width="1.1237" stroke-linecap="round" stroke-linejoin="round"/>
<path d="M9.55144 10.113L11.7988 7.86556L9.55144 5.61816" stroke="#F5F3F5" stroke-width="1.1237" stroke-linecap="round" stroke-linejoin="round"/>
<path d="M4.49479 2.24707H3.37109C3.07307 2.24707 2.78725 2.36546 2.57651 2.57619C2.36578 2.78693 2.24739 3.07274 2.24739 3.37077V11.2367C2.24739 11.5347 2.36578 11.8205 2.57651 12.0312C2.78725 12.242 3.07307 12.3604 3.37109 12.3604H10.1133C10.3228 12.3604 10.5282 12.3019 10.7062 12.1914C10.8842 12.0809 11.0277 11.9228 11.1207 11.735" stroke="#F5F3F5" stroke-width="1.1237" stroke-linecap="round" stroke-linejoin="round"/>
<path d="M8.42774 1.12402H5.05665C4.74635 1.12402 4.4948 1.37557 4.4948 1.68587V2.80957C4.4948 3.11987 4.74635 3.37142 5.05665 3.37142H8.42774C8.73804 3.37142 8.98959 3.11987 8.98959 2.80957V1.68587C8.98959 1.37557 8.73804 1.12402 8.42774 1.12402Z" stroke="#F5F3F5" stroke-width="1.1237" stroke-linecap="round" stroke-linejoin="round"/>
</svg>
