<svg width="20" height="20" viewBox="0 0 20 20" fill="none" xmlns="http://www.w3.org/2000/svg">
<path d="M8.05916 3.44712C8.10508 2.96407 8.32944 2.51549 8.68841 2.18902C9.04739 1.86255 9.51518 1.68164 10.0004 1.68164C10.4856 1.68164 10.9534 1.86255 11.3124 2.18902C11.6714 2.51549 11.8957 2.96407 11.9417 3.44712C11.9693 3.75916 12.0716 4.05997 12.2401 4.32407C12.4086 4.58817 12.6382 4.80779 12.9095 4.96435C13.1809 5.12091 13.4859 5.20979 13.7989 5.22347C14.1119 5.23715 14.4235 5.17523 14.7075 5.04295C15.1484 4.84277 15.6481 4.8138 16.1092 4.96169C16.5703 5.10958 16.9599 5.42374 17.2021 5.84304C17.4443 6.26233 17.5219 6.75676 17.4197 7.23009C17.3175 7.70343 17.0428 8.1218 16.6492 8.40378C16.3928 8.58366 16.1836 8.82262 16.0391 9.10047C15.8946 9.37832 15.8192 9.68687 15.8192 10C15.8192 10.3132 15.8946 10.6217 16.0391 10.8996C16.1836 11.1774 16.3928 11.4164 16.6492 11.5963C17.0428 11.8783 17.3175 12.2966 17.4197 12.77C17.5219 13.2433 17.4443 13.7377 17.2021 14.157C16.9599 14.5763 16.5703 14.8905 16.1092 15.0384C15.6481 15.1863 15.1484 15.1573 14.7075 14.9571C14.4235 14.8248 14.1119 14.7629 13.7989 14.7766C13.4859 14.7903 13.1809 14.8792 12.9095 15.0357C12.6382 15.1923 12.4086 15.4119 12.2401 15.676C12.0716 15.9401 11.9693 16.2409 11.9417 16.553C11.8957 17.036 11.6714 17.4846 11.3124 17.8111C10.9534 18.1375 10.4856 18.3184 10.0004 18.3184C9.51518 18.3184 9.04739 18.1375 8.68841 17.8111C8.32944 17.4846 8.10508 17.036 8.05916 16.553C8.03161 16.2408 7.92924 15.9399 7.76072 15.6757C7.59219 15.4115 7.36247 15.1918 7.09102 15.0352C6.81957 14.8786 6.51438 14.7898 6.20131 14.7762C5.88824 14.7626 5.5765 14.8247 5.29249 14.9571C4.85157 15.1573 4.35193 15.1863 3.89083 15.0384C3.42972 14.8905 3.04014 14.5763 2.7979 14.157C2.55566 13.7377 2.47809 13.2433 2.58029 12.77C2.6825 12.2966 2.95716 11.8783 3.35083 11.5963C3.60718 11.4164 3.81644 11.1774 3.9609 10.8996C4.10537 10.6217 4.18079 10.3132 4.18079 10C4.18079 9.68687 4.10537 9.37832 3.9609 9.10047C3.81644 8.82262 3.60718 8.58366 3.35083 8.40378C2.95771 8.12166 2.68354 7.70345 2.58158 7.23044C2.47962 6.75743 2.55717 6.2634 2.79915 5.84438C3.04113 5.42536 3.43025 5.11127 3.8909 4.96315C4.35155 4.81504 4.85081 4.84348 5.29166 5.04295C5.57563 5.17523 5.88728 5.23715 6.20024 5.22347C6.51321 5.20979 6.81827 5.12091 7.08961 4.96435C7.36095 4.80779 7.59057 4.58817 7.75905 4.32407C7.92753 4.05997 8.0299 3.75916 8.05749 3.44712" stroke="#4BB3FD" stroke-width="1.66667" stroke-linecap="round" stroke-linejoin="round"/>
<path d="M10 12.5C11.3807 12.5 12.5 11.3807 12.5 10C12.5 8.61929 11.3807 7.5 10 7.5C8.61929 7.5 7.5 8.61929 7.5 10C7.5 11.3807 8.61929 12.5 10 12.5Z" stroke="#4BB3FD" stroke-width="1.66667" stroke-linecap="round" stroke-linejoin="round"/>
</svg>
